<?xml version="1.0" encoding="iso-8859-1"?>
<!-- Generator: Adobe Illustrator 19.0.0, SVG Export Plug-In . SVG Version: 6.00 Build 0)  -->
<svg version="1.1" id="Layer_1" xmlns="http://www.w3.org/2000/svg" xmlns:xlink="http://www.w3.org/1999/xlink" x="0px" y="0px"
	 viewBox="0 0 313.674 313.674" style="enable-background:new 0 0 313.674 313.674;" xml:space="preserve">
<g>
	<path style="fill:#D1D3D3;" d="M128.172,171.457L274.747,7.442c8.209-9.186,22.303-9.975,31.486-1.772
		c9.183,8.209,9.973,22.303,1.768,31.486c-0.559,0.625-1.159,1.221-1.77,1.769L142.214,185.5c-4.096,3.66-10.383,3.309-14.042-0.789
		C124.762,180.897,124.837,175.182,128.172,171.457z"/>
	<g>
		<path style="fill:#C3C6C8;" d="M293.049,20.623c0.424,0.424,0.426,1.109,0,1.537l-133.17,133.169c-0.424,0.424-1.11,0.424-1.534,0
			s-0.425-1.111,0-1.535l133.17-133.17C291.938,20.2,292.626,20.2,293.049,20.623z"/>
		<path style="fill:#C3C6C8;" d="M300.491,28.065c0.007,0.006,0.016,0.016,0.022,0.021c0.412,0.435,0.393,1.123-0.043,1.537
			l-136.891,129.45c-0.436,0.41-1.128,0.393-1.535-0.045c-0.412-0.436-0.393-1.123,0.043-1.535l136.89-129.448
			C299.405,27.639,300.076,27.649,300.491,28.065z"/>
		<path style="fill:#C3C6C8;" d="M285.608,13.182c0.414,0.414,0.426,1.086,0.022,1.514l-129.45,136.89
			c-0.412,0.438-1.1,0.455-1.535,0.043c-0.421-0.441-0.455-1.098-0.043-1.533L284.049,13.204c0.414-0.436,1.102-0.457,1.536-0.045
			C285.594,13.168,285.602,13.176,285.608,13.182z"/>
	</g>
	<g>
		<path style="fill:#D1D3D3;" d="M140.587,239.916L69.34,311.163c-3.348,3.348-8.776,3.348-12.124,0
			c-3.349-3.348-3.349-8.777-0.001-12.125l52.584-52.584c1.688-1.688,1.688-4.422,0-6.109s-4.423-1.688-6.109,0l-52.584,52.582
			c-3.349,3.35-8.776,3.35-12.125,0.002c-3.348-3.35-3.349-8.777,0-12.127l52.584-52.582c1.686-1.688,1.688-4.422,0-6.109
			s-4.422-1.688-6.109,0l-52.584,52.584c-3.348,3.348-8.777,3.348-12.125-0.002c-3.348-3.348-3.35-8.775,0-12.125l52.583-52.584
			c1.687-1.686,1.688-4.422,0.001-6.107c-1.688-1.688-4.424-1.688-6.11-0.002l-52.583,52.584c-3.35,3.35-8.777,3.348-12.125,0
			c-3.348-3.348-3.35-8.775,0-12.125l71.244-71.244c18.454-18.455,48.375-18.455,66.83-0.002S159.04,221.463,140.587,239.916z"/>
	</g>
</g>
<g>
</g>
<g>
</g>
<g>
</g>
<g>
</g>
<g>
</g>
<g>
</g>
<g>
</g>
<g>
</g>
<g>
</g>
<g>
</g>
<g>
</g>
<g>
</g>
<g>
</g>
<g>
</g>
<g>
</g>
</svg>
